<svg width="343" height="66" viewBox="0 0 343 66" fill="none" xmlns="http://www.w3.org/2000/svg">
  <path
    d="M13.704 36.624C13.704 38.16 13.7253 39.824 13.768 41.616C13.8107 43.3653 13.9813 47.6107 14.28 54.352C12.36 54.352 10.4187 54.2667 8.45599 54.096C6.49332 53.968 4.76532 53.776 3.27199 53.52C2.46132 46.736 1.86399 40.208 1.47999 33.936C1.09599 27.6213 0.903992 21.4987 0.903992 15.568C0.903992 14.2453 0.925325 12.8373 0.967992 11.344C1.05332 9.85065 1.18132 8.14399 1.35199 6.22399C3.57066 5.11465 6.25866 4.21865 9.41599 3.53599C12.616 2.85332 15.752 2.51199 18.824 2.51199C24.0293 2.51199 28.04 3.62132 30.856 5.83998C33.7147 8.01598 35.144 11.0667 35.144 14.992C35.144 19.7707 33.224 24.1013 29.384 27.984C25.5867 31.8667 20.36 34.7467 13.704 36.624ZM21.96 17.296C21.96 14.8213 21.4693 12.944 20.488 11.664C19.5493 10.384 18.12 9.74399 16.2 9.74399C15.816 9.74399 15.5173 9.74399 15.304 9.74399C15.1333 9.74399 14.9627 9.76532 14.792 9.80799C14.536 12.6667 14.3227 15.632 14.152 18.704C13.9813 21.776 13.8533 24.9973 13.768 28.368C16.4987 27.6427 18.5467 26.3627 19.912 24.528C21.2773 22.6933 21.96 20.2827 21.96 17.296Z"
    fill="#F45858" />
  <path
    d="M48.5505 27.856C49.0625 27.984 49.5532 28.0907 50.0225 28.176C50.5345 28.2187 50.9612 28.24 51.3025 28.24C51.6438 28.24 52.0278 28.24 52.4545 28.24C52.9238 28.1973 53.2438 28.1547 53.4145 28.112C53.6705 27.088 53.8625 26.128 53.9905 25.232C54.1612 24.336 54.2465 23.5253 54.2465 22.8C54.2465 21.904 54.1185 21.2427 53.8625 20.816C53.6492 20.3893 53.3078 20.176 52.8385 20.176C51.9852 20.176 51.1745 20.88 50.4065 22.288C49.6385 23.6533 49.0198 25.5093 48.5505 27.856ZM56.2945 37.712C57.9158 38.0107 59.5585 38.608 61.2225 39.504C62.9292 40.3573 64.3158 41.3387 65.3825 42.448C65.0412 43.5573 64.2518 44.752 63.0145 46.032C61.7772 47.312 60.3052 48.3787 58.5985 49.232C57.2332 49.9147 55.7398 50.4267 54.1185 50.768C52.5398 51.152 50.8758 51.344 49.1265 51.344C44.6892 51.344 41.2118 50.064 38.6945 47.504C36.2198 44.9013 34.9825 41.3813 34.9825 36.944C34.9825 34.1707 35.4092 31.4613 36.2625 28.816C37.1585 26.128 38.4172 23.696 40.0385 21.52C41.8732 19.088 43.9852 17.1893 46.3745 15.824C48.7638 14.4587 51.2172 13.776 53.7345 13.776C57.3185 13.776 60.1772 14.6933 62.3105 16.528C64.4438 18.32 65.5105 20.7307 65.5105 23.76C65.5105 25.1253 65.3612 26.64 65.0625 28.304C64.8065 29.9253 64.4652 31.3333 64.0385 32.528C62.7158 33.168 61.0732 33.6587 59.1105 34C57.1905 34.2987 54.8865 34.448 52.1985 34.448C51.4305 34.448 50.6625 34.4053 49.8945 34.32C49.1692 34.2347 48.4438 34.128 47.7185 34C47.6758 34.256 47.6545 34.5547 47.6545 34.896C47.6545 35.1947 47.6545 35.664 47.6545 36.304C47.6545 38.864 47.9745 40.8267 48.6145 42.192C49.2972 43.5573 50.2572 44.24 51.4945 44.24C52.3052 44.24 53.1798 43.5787 54.1185 42.256C55.0572 40.9333 55.7825 39.4187 56.2945 37.712Z"
    fill="#F45858" />
  <path
    d="M82.3375 31.76C82.3375 34.8747 82.8282 37.3707 83.8095 39.248C84.7908 41.0827 86.0282 42 87.5215 42C87.8202 42 88.1188 41.9147 88.4175 41.744C88.7162 41.5307 88.9935 41.2533 89.2495 40.912V40.4C89.2495 37.968 89.0788 35.1733 88.7375 32.016C88.4388 28.8587 88.0335 25.8293 87.5215 22.928C87.3935 22.8853 87.2442 22.864 87.0735 22.864C86.9455 22.864 86.7322 22.864 86.4335 22.864C85.0255 22.864 83.9802 23.5893 83.2975 25.04C82.6575 26.4907 82.3375 28.7307 82.3375 31.76ZM102.049 39.184C102.049 47.8453 100.471 54.4373 97.3135 58.96C94.1988 63.5253 89.7402 65.808 83.9375 65.808C79.9268 65.808 76.7908 64.8053 74.5295 62.8C72.3108 60.8373 71.2015 58.4267 71.2015 55.568C72.5242 54.544 74.1028 53.6693 75.9375 52.944C77.8148 52.2613 79.7135 51.792 81.6335 51.536C82.0175 54.1813 82.4655 56.016 82.9775 57.04C83.4895 58.1067 84.1722 58.64 85.0255 58.64C86.2202 58.64 87.1588 57.7227 87.8415 55.888C88.5242 54.096 88.9508 51.2587 89.1215 47.376C88.3108 48.1867 87.4362 48.784 86.4975 49.168C85.5588 49.552 84.5135 49.744 83.3615 49.744C79.3082 49.744 76.0442 48.336 73.5695 45.52C71.0948 42.704 69.8575 39.0133 69.8575 34.448C69.8575 28.176 71.4148 23.44 74.5295 20.24C77.6868 16.9973 82.3375 15.376 88.4815 15.376C90.0602 15.376 91.8735 15.5253 93.9215 15.824C95.9695 16.1227 97.8895 16.528 99.6815 17.04C100.279 19.088 100.812 22.352 101.281 26.832C101.793 31.2693 102.049 35.3867 102.049 39.184Z"
    fill="#F45858" />
  <path
    d="M137.899 27.088C137.899 29.776 137.536 33.4453 136.811 38.096C136.086 42.704 135.147 47.4613 133.995 52.368C132.502 52.368 130.902 52.2613 129.195 52.048C127.488 51.8773 125.824 51.6213 124.203 51.28C124.288 50.5547 124.352 50 124.395 49.616C124.438 49.232 124.48 48.8907 124.523 48.592C123.627 48.976 122.646 49.2747 121.579 49.488C120.512 49.7013 119.36 49.808 118.123 49.808C114.582 49.808 111.744 48.9333 109.611 47.184C107.478 45.392 106.411 43.0027 106.411 40.016C106.411 36.9867 107.627 34.7253 110.059 33.232C112.534 31.696 116.246 30.928 121.195 30.928C122.816 30.928 123.904 30.928 124.459 30.928C125.014 30.928 125.462 30.9493 125.803 30.992C125.76 26.9813 125.504 24.2507 125.035 22.8C124.566 21.3493 123.798 20.624 122.731 20.624C121.707 20.624 120.811 21.328 120.043 22.736C119.318 24.1013 118.934 25.8507 118.891 27.984C116.16 27.984 113.878 27.472 112.043 26.448C110.251 25.424 109.014 23.952 108.331 22.032C109.142 19.8133 110.976 17.9147 113.835 16.336C116.694 14.7573 120 13.968 123.755 13.968C128.406 13.968 131.926 15.0773 134.315 17.296C136.704 19.5147 137.899 22.7787 137.899 27.088ZM119.147 40.912C119.147 41.8933 119.403 42.6613 119.915 43.216C120.427 43.728 121.174 43.984 122.155 43.984C122.752 43.984 123.286 43.92 123.755 43.792C124.224 43.664 124.694 43.472 125.163 43.216C125.334 41.7227 125.44 40.4427 125.483 39.376C125.568 38.2667 125.632 37.264 125.675 36.368C123.456 36.496 121.814 36.9227 120.747 37.648C119.68 38.3733 119.147 39.4613 119.147 40.912Z"
    fill="#F45858" />
  <path
    d="M205.768 50.896C203.422 51.792 201.246 52.4107 199.24 52.752C197.278 53.0933 195.016 53.264 192.456 53.264C192.84 48.9547 193.16 43.92 193.416 38.16C193.672 32.4 193.886 26.2987 194.056 19.856C192.478 22.5013 191.006 25.232 189.64 28.048C188.275 30.864 187.016 33.7653 185.864 36.752C184.84 37.0507 183.603 37.2213 182.152 37.264C180.744 37.3067 179.379 37.2 178.056 36.944C176.819 34.1707 175.496 31.4613 174.088 28.816C172.68 26.128 171.187 23.5253 169.608 21.008C169.608 26.1707 169.886 31.2907 170.44 36.368C171.038 41.4027 171.827 45.6053 172.808 48.976C171.656 49.3173 169.907 49.616 167.56 49.872C165.214 50.128 163.038 50.256 161.032 50.256C160.222 44.6667 159.539 37.5413 158.984 28.88C158.43 20.176 158.152 12.5173 158.152 5.90399C159.987 4.62399 161.992 3.53599 164.168 2.63999C166.387 1.74399 168.456 1.16799 170.376 0.911987C173.448 4.87999 176.008 8.50665 178.056 11.792C180.147 15.0773 181.918 18.2773 183.368 21.392C184.99 17.6373 186.76 14.0533 188.68 10.64C190.643 7.18399 192.712 3.96265 194.888 0.975986C196.595 1.23199 198.302 1.61599 200.008 2.12799C201.715 2.59732 203.336 3.19465 204.872 3.91999C205.171 9.76532 205.384 16.8907 205.512 25.296C205.683 33.7013 205.768 42.2347 205.768 50.896Z"
    fill="#F45858" />
  <path
    d="M209.475 35.088C209.475 29.072 211.203 24.1653 214.659 20.368C218.158 16.528 222.68 14.608 228.227 14.608C232.408 14.608 235.651 15.7813 237.955 18.128C240.259 20.4747 241.411 23.8027 241.411 28.112C241.411 30.8 240.984 33.5307 240.131 36.304C239.32 39.0773 238.168 41.488 236.675 43.536C234.968 45.8827 232.92 47.6533 230.531 48.848C228.184 50.0427 225.518 50.64 222.531 50.64C218.392 50.64 215.171 49.2533 212.867 46.48C210.606 43.664 209.475 39.8667 209.475 35.088ZM228.675 31.632C228.675 28.304 228.419 25.872 227.907 24.336C227.395 22.7573 226.584 21.968 225.475 21.968C224.451 21.968 223.598 23.0133 222.915 25.104C222.275 27.1947 221.955 29.9253 221.955 33.296C221.955 36.0693 222.254 38.4373 222.851 40.4C223.448 42.32 224.259 43.28 225.283 43.28C226.35 43.28 227.182 42.2133 227.779 40.08C228.376 37.904 228.675 35.088 228.675 31.632Z"
    fill="#F45858" />
  <path
    d="M258.736 43.664C258.736 44.8587 258.736 46.0533 258.736 47.248C258.779 48.4 258.843 49.7867 258.928 51.408C257.734 51.7493 256.112 52.048 254.064 52.304C252.016 52.56 250.118 52.688 248.368 52.688C247.728 48.0373 247.152 42.064 246.64 34.768C246.171 27.472 245.936 21.3493 245.936 16.4C246.918 15.888 248.304 15.4827 250.096 15.184C251.888 14.8853 253.723 14.736 255.6 14.736C256.454 14.736 257.286 14.7787 258.096 14.864C258.907 14.9493 259.718 15.0773 260.529 15.248C260.315 16.784 260.166 17.8933 260.081 18.576C259.995 19.2587 259.931 19.9413 259.888 20.624C261.126 18.832 262.534 17.488 264.112 16.592C265.691 15.696 267.419 15.248 269.296 15.248C272.283 15.248 274.545 16.336 276.081 18.512C277.617 20.6453 278.384 23.824 278.384 28.048C278.384 31.376 278.107 35.216 277.552 39.568C276.998 43.8773 276.422 47.1413 275.824 49.36C274.16 49.36 272.326 49.2747 270.32 49.104C268.315 48.8907 266.011 48.5707 263.408 48.144C264.134 44.1333 264.688 40.4 265.072 36.944C265.499 33.4453 265.712 30.608 265.712 28.432C265.712 27.2373 265.542 26.3627 265.201 25.808C264.859 25.2107 264.326 24.912 263.6 24.912C262.79 24.912 262 25.3813 261.232 26.32C260.464 27.2587 259.782 28.56 259.184 30.224C259.014 32.912 258.886 35.3867 258.801 37.648C258.758 39.8667 258.736 41.872 258.736 43.664Z"
    fill="#F45858" />
  <path
    d="M300.089 35.152C301.539 35.3227 303.011 35.7067 304.504 36.304C306.04 36.9013 307.406 37.6693 308.6 38.608C308.6 41.68 307.64 44.2827 305.72 46.416C303.8 48.5493 301.134 49.616 297.72 49.616C293.411 49.616 290.062 48.1013 287.672 45.072C285.326 42 284.152 37.5627 284.152 31.76C284.152 30.3947 284.174 28.9867 284.216 27.536C284.259 26.0427 284.345 24.4853 284.473 22.864C283.619 22.736 282.808 22.5867 282.04 22.416C281.272 22.2453 280.59 22.0747 279.992 21.904C279.992 20.5387 280.12 19.2373 280.376 18C280.632 16.7627 280.995 15.8027 281.464 15.12C281.891 15.248 282.403 15.3973 283 15.568C283.64 15.696 284.409 15.824 285.305 15.952C285.561 14.2027 285.816 12.688 286.072 11.408C286.371 10.0853 286.67 8.91199 286.969 7.88799C289.529 7.88799 292.003 8.05865 294.392 8.39999C296.824 8.69865 298.787 9.10399 300.28 9.61599C300.024 10.64 299.747 11.792 299.448 13.072C299.15 14.3093 298.894 15.5893 298.68 16.912C300.472 16.9547 302.179 16.9547 303.801 16.912C305.465 16.8267 306.915 16.6987 308.152 16.528C308.152 17.5093 308.046 18.6187 307.832 19.856C307.619 21.0933 307.32 22.224 306.936 23.248C305.87 23.4613 304.504 23.632 302.84 23.76C301.176 23.8453 299.427 23.8667 297.592 23.824C297.379 25.4453 297.209 27.0667 297.081 28.688C296.953 30.3093 296.888 31.8453 296.888 33.296C296.888 36.88 297.016 39.312 297.272 40.592C297.528 41.8293 297.955 42.448 298.552 42.448C298.936 42.448 299.278 41.808 299.577 40.528C299.875 39.2053 300.046 37.4133 300.089 35.152Z"
    fill="#F45858" />
  <path
    d="M325.238 27.856C325.75 27.984 326.241 28.0907 326.71 28.176C327.222 28.2187 327.649 28.24 327.99 28.24C328.331 28.24 328.715 28.24 329.142 28.24C329.611 28.1973 329.931 28.1547 330.102 28.112C330.358 27.088 330.55 26.128 330.678 25.232C330.849 24.336 330.934 23.5253 330.934 22.8C330.934 21.904 330.806 21.2427 330.55 20.816C330.337 20.3893 329.995 20.176 329.526 20.176C328.673 20.176 327.862 20.88 327.094 22.288C326.326 23.6533 325.707 25.5093 325.238 27.856ZM332.982 37.712C334.603 38.0107 336.246 38.608 337.91 39.504C339.617 40.3573 341.003 41.3387 342.07 42.448C341.729 43.5573 340.939 44.752 339.702 46.032C338.465 47.312 336.993 48.3787 335.286 49.232C333.921 49.9147 332.427 50.4267 330.806 50.768C329.227 51.152 327.563 51.344 325.814 51.344C321.377 51.344 317.899 50.064 315.382 47.504C312.907 44.9013 311.67 41.3813 311.67 36.944C311.67 34.1707 312.097 31.4613 312.95 28.816C313.846 26.128 315.105 23.696 316.726 21.52C318.561 19.088 320.673 17.1893 323.062 15.824C325.451 14.4587 327.905 13.776 330.422 13.776C334.006 13.776 336.865 14.6933 338.998 16.528C341.131 18.32 342.198 20.7307 342.198 23.76C342.198 25.1253 342.049 26.64 341.75 28.304C341.494 29.9253 341.153 31.3333 340.726 32.528C339.403 33.168 337.761 33.6587 335.798 34C333.878 34.2987 331.574 34.448 328.886 34.448C328.118 34.448 327.35 34.4053 326.582 34.32C325.857 34.2347 325.131 34.128 324.406 34C324.363 34.256 324.342 34.5547 324.342 34.896C324.342 35.1947 324.342 35.664 324.342 36.304C324.342 38.864 324.662 40.8267 325.302 42.192C325.985 43.5573 326.945 44.24 328.182 44.24C328.993 44.24 329.867 43.5787 330.806 42.256C331.745 40.9333 332.47 39.4187 332.982 37.712Z"
    fill="#F45858" />
</svg>